<svg xmlns="http://www.w3.org/2000/svg" version="1.1" x="0px" y="0px" width="60px" height="60px" viewBox="0 0 240 240" xml:space="preserve"><path d="m105.63 236.87c-17.275-2.22-34.678-8.73-49.291-18.44-54.583-36.26-69.355-108.23-33.382-162.64 11.964-18.101 31.389-34.423 51.05-42.899 36.303-15.652 78.013-12.004 110.65 9.678 54.58 36.259 69.36 108.23 33.38 162.65-24.44 36.97-68.62 57.27-112.41 51.65zm9.37-7.17c0-1.12-15.871-50.86-20.804-65.2l-1.719-5-36.926-0.26c-20.309-0.15-37.284 0.09-37.721 0.53-1.104 1.1 4.147 11.87 10.535 21.59 16.439 25.04 41.149 41.59 71.135 47.65 11.07 2.24 15.5 2.44 15.5 0.69zm25.71-0.61c30.52-5.95 55.28-22.38 71.92-47.73 6.39-9.72 11.64-20.49 10.54-21.59-0.44-0.44-17.41-0.68-37.72-0.53l-36.93 0.26-1.72 5c-4.93 14.34-20.8 64.08-20.8 65.2 0 1.77 3.2 1.64 14.71-0.61zm-9.32-38.99c5.25-16.18 9.3-29.79 9.01-30.25-0.28-0.47-9.24-0.85-19.9-0.85s-19.62 0.38-19.9 0.85c-0.46 0.74 17.66 58.14 19.08 60.43 0.3 0.49 0.91 0.52 1.36 0.06s5.11-14.07 10.35-30.24zm-42.19-38.63c0.629-0.63-10.723-36.39-11.936-37.61-0.817-0.81-51.452 35.32-52.097 37.18-0.349 1 63.032 1.43 64.033 0.43zm61.27-20.06c3.65-11.32 6.51-21.41 6.34-22.42-0.32-1.86-34.12-26.99-36.31-26.99s-35.993 25.13-36.308 26.99c-0.169 1.01 2.683 11.1 6.339 22.42l6.647 20.59h46.642l6.65-20.59zm65.36 19.63c-0.64-1.86-51.28-37.99-52.09-37.18-1.22 1.22-12.57 36.98-11.94 37.61 1 1 64.38 0.57 64.03-0.43zm-169.97-24.02c16.09-11.7 29.071-21.78 28.847-22.4-0.397-1.09-12.185-37.499-18.958-58.555-1.846-5.739-3.951-10.632-4.678-10.875-0.727-0.242-4.903 3.259-9.28 7.78-22 22.72-32.81 50.641-31.513 81.39 0.678 16.09 2.371 24.97 4.646 24.37 0.925-0.24 14.846-10.01 30.936-21.71zm183.14 15.73c0.66-3.44 1.44-11.71 1.72-18.39 1.3-30.749-9.51-58.67-31.51-81.39-4.38-4.521-8.55-8.022-9.28-7.78-0.73 0.243-2.83 5.136-4.68 10.875-1.84 5.739-6.93 21.448-11.29 34.908-6.26 19.297-7.68 24.717-6.7 25.627 3.41 3.18 58.29 42.4 59.32 42.4 0.68 0 1.73-2.72 2.42-6.25zm-129.27-54.808c7.573-5.522 13.773-10.467 13.773-10.987 0-1.007-50.318-37.955-51.689-37.955-0.446 0-0.811 0.317-0.811 0.704 0 0.388 3.825 12.484 8.5 26.882s8.5 26.401 8.5 26.674 0.697 2.163 1.548 4.201c1.832 4.389-0.216 5.349 20.179-9.519zm66.613-5.442c3.03-9.35 7.35-22.629 9.59-29.508 4.36-13.403 4.5-13.992 3.26-13.992-1.39 0-51.69 36.953-51.69 37.971 0 1.477 31.75 24.189 32.58 23.309 0.4-0.431 3.22-8.43 6.26-17.78zm-14.4-32.538l29.32-21.329-2.37-1.927c-10.93-8.844-38.4-16.706-58.39-16.706s-47.464 7.862-58.388 16.708l-2.382 1.929 29.885 21.728c16.845 12.25 30.565 21.552 31.435 21.326 0.86-0.22 14.75-9.999 30.89-21.729z"/></svg>