<svg xmlns="http://www.w3.org/2000/svg" version="1.1" x="0px" y="0px" width="60px" height="60px" viewBox="0 0 4000 3000" xml:space="preserve"><path class="bolden" d="m2077.0957,2355.0556 c -24.8548,-6.6306 -43.8442,-12.4931 -65.1438,-20.1115 -171.2303,-61.2458 -332.546,-186.5828 -484.656,-376.562 -106.9479,-133.5736 -211.9033,-304.0752 -307.5304,-499.5874 -70.9505,-145.0603 -137.2376,-301.6744 -201.0755,-475.07329 -4.0445,-10.9859 -7.4891,-20.1129 -7.6546,-20.2824 -0.1656,-0.1694 -2.0374,1.7618 -4.1597,4.2917 -41.97221,50.03289 -102.85691,112.12769 -165.25321,168.53769 -153.4012,138.6841 -322.8342,254.6704 -451.2868,308.9308 -4.8375,2.0435 -9.6944,4.102 -10.793,4.5744 l -1.9977,0.8591 14.4133,7.0194 c 72.3515,35.2357 143.3639,78.5554 206.1228,125.7414 218.7562,164.4739 368.1707,393.9487 437.81411,672.4065 3.7109,14.8375 9.1943,38.7303 9.0117,39.2665 -0.069,0.2024 -1.3235,-3.0502 -2.788,-7.228 -74.09121,-211.3582 -207.71511,-385.1177 -394.71211,-513.2685 -102.107,-69.9749 -219.4845,-126.1019 -348.488,-166.6383 -76.1077,-23.9151 -155.9429,-42.2005 -232.883496,-53.3396 -6.991,-1.0121 -12.8528,-1.8883 -13.0261,-1.947 -0.1733,-0.059 2.0738,-1.6288 4.9936,-3.4891 2.9198,-1.8603 15.625,-10.0516 28.2339,-18.2031 204.092496,-131.9427 358.291896,-247.07 478.472596,-357.2338 37.0992,-34.0071 77.0506,-73.8638 107.6314,-107.3762 86.2451,-94.51319 148.9362,-188.57859 189.3356,-284.08999 30.7863,-72.7845 49.1302,-147.8337 55.0585,-225.2576 0.8677,-11.3324 1.6179,-24.3907 1.6179,-28.1635 l 0,-2.8677 -2.3833,-0.2589 c -5.6397,-0.6126 -53.3922,-2.328 -84.3238,-3.0291 -26.1322,-0.5923 -105.9829,-0.2965 -125.748,0.4658 -35.3648,1.3639 -61.1426,2.7941 -86.7072,4.8105 -195.6367,15.431 -343.0035,61.1297 -446.9275,138.593 -2.4968,1.8611 -4.029,2.8664 -3.4048,2.2341 0.9758,-0.9885 397.2225,-336.9788 399.0477,-338.3654 0.4983,-0.3785 8.2687,0.05 30.6293,1.691 273.5285,20.0676 411.83311,27.9616 556.33281,31.7538 29.6737,0.7788 110.952,1.0595 138.2321,0.4775 83.5286,-1.7821 143.7695,-6.6707 194.0695,-15.7487 47.0041,-8.4831 83.1621,-21.2812 103.3974,-36.5973 1.6154,-1.2226 2.9812,-2.1619 3.0353,-2.0872 0.054,0.075 -0.079,2.1785 -0.2952,4.6753 -0.578,6.6693 -0.5481,29.498 0.048,36.3171 3.3368,38.2002 14.0507,70.8483 33.8884,103.2667 18.8519,30.8073 47.6861,61.0826 82.1419,86.2473 37.3245,27.2597 81.564,49.9843 131.8765,67.7412 4.8688,1.7184 8.2555,3.0024 7.5259,2.8535 -0.7295,-0.1489 -6.3473,-1.3924 -12.484,-2.7634 -39.6642,-8.861 -104.6887,-20.5993 -168.0021,-30.328 -137.3768,-21.1093 -273.1583,-35.4146 -362.8049,-38.2235 l -9.8479,-0.3086 -0.224,1.0898 c -0.1233,0.5995 -0.335,2.5199 -0.4706,4.2677 -1.3397,17.2691 -1.7023,22.4205 -2.2846,32.4584 -2.3935,41.2643 -2.3955,89.1364 -0.01,134.8273 11.3803,217.5701 77.3475,473.27869 189.8401,735.87559 89.2575,208.3584 210.5193,422.3508 332.3606,586.5215 22.7139,30.605 33.0709,42.8702 44.5166,52.7187 25.6187,22.0437 46.811,23.8716 65.2335,5.6265 19.5207,-19.3327 34.7161,-60.9422 45.5423,-124.7077 19.3386,-113.9042 23.2932,-297.6572 10.9059,-506.7671 -4.6678,-78.7985 -10.1013,-140.5522 -20.8699,-237.1961 -5.9357,-53.2693 -7.4546,-65.7004 -8.6502,-70.7914 -4.7369,-20.171 -27.3114,-47.5028 -65.7926,-79.6576 -11.906,-9.9486 -20.1748,-16.4224 -39.1544,-30.6551 -8.4267,-6.3191 -15.3189,-11.6171 -15.3159,-11.7734 0,-0.1563 1.2797,-0.9816 2.8373,-1.8339 14.6036,-7.9917 42.9197,-26.1494 64.2088,-41.17369 35.0761,-24.7546 77.4208,-59.2093 108.4143,-88.2139 58.9609,-55.1774 106.4613,-109.4316 139.8321,-159.7139 2.693,-4.0578 4.9524,-7.3218 5.0209,-7.2532 0.069,0.068 -0.9793,4.6953 -2.3284,10.2819 -52.0714,215.624 -73.4586,458.30359 -63.0753,715.71049 8.1008,200.8217 36.667,415.9599 82.2909,619.7502 l 2.6625,11.8924 -4.124,2.8336 c -25.7438,17.6888 -44.4201,32.0283 -57.3292,44.017 -19.4405,18.0544 -30.6873,35.3946 -36.0405,55.5665 -3.2336,12.1849 -4.2393,21.7435 -4.2035,39.9489 0.043,21.9591 1.571,38.7035 9.4024,103.0498 1.3371,10.9859 2.4091,19.9949 2.3823,20.0199 -0.027,0.025 -1.8874,-0.445 -4.1345,-1.0444 z m 326.7144,-985.6489 c -17.4427,-32.7693 -52.6734,-76.4714 -96.8446,-120.1314 -30.3662,-30.0148 -57.7931,-52.8046 -81.5396,-67.7535 -6.8082,-4.2859 -19.6404,-11.0063 -22.8544,-11.9693 -0.9739,-0.2918 -1.7706,-0.6524 -1.7706,-0.8014 0,-0.149 1.2767,-0.754 2.8373,-1.3444 8.1023,-3.0654 22.7254,-11.5869 35.2957,-20.5684 21.4993,-15.3612 43.2465,-34.1516 68.6986,-59.358 42.609,-42.1976 76.3979,-83.8447 94.6619,-116.67699 2.2626,-4.0672 4.2245,-7.6252 4.36,-7.9065 0.1826,-0.3795 0.3097,-0.3795 0.4923,0 0.1354,0.2813 2.0845,3.8162 4.3314,7.8552 18.2956,32.88899 52.1844,74.66389 94.6871,116.72119 25.6446,25.3759 47.2008,44.0026 68.702,59.3651 12.5703,8.9815 27.1934,17.503 35.2957,20.5684 1.5605,0.5904 2.8373,1.1777 2.8373,1.3051 0,0.1274 -1.2768,0.7145 -2.8373,1.305 -1.5605,0.5904 -5.6973,2.5407 -9.1928,4.334 -24.7032,12.6736 -57.8306,39.0407 -94.1346,74.9245 -44.1711,43.66 -79.4018,87.3621 -96.8445,120.1314 -1.5749,2.9588 -2.9656,5.3796 -3.0904,5.3796 -0.1249,0 -1.5156,-2.4208 -3.0905,-5.3796 z M 166.36129,670.71331 c 0.452,-0.4994 0.9239,-0.9079 1.0487,-0.9079 0.1248,0 -0.1428,0.4085 -0.5947,0.9079 -0.4519,0.4993 -0.9238,0.9079 -1.0487,0.9079 -0.1248,0 0.1428,-0.4086 0.5947,-0.9079 z"/></svg>